<svg xmlns="http://www.w3.org/2000/svg" width="24" height="24" viewBox="157 130 280 197">
  <g transform="translate(0,467) scale(0.05,-0.05)" fill="currentColor" stroke="none">
    <path d="M5318 6634 c-39 -35 -191 -172 -338 -304 -147 -132 -403 -360 -569 -507 -358 -318 -322 -254 -378 -671 l-45 -339 -123 -25 c-402 -82 -512 -136 -494 -244 53 -318 230 -597 444 -700 45 -22 65 -45 65 -77 0 -50 -7 -43 497 -490 423 -374 392 -351 433 -317 28 23 32 49 20 153 l-13 126 149 -69 c585 -271 1478 -271 2068 -1 145 67 140 69 125 -64 -28 -238 -9 -231 471 185 216 187 415 358 441 381 27 22 49 60 49 84 0 31 31 64 105 111 245 157 496 642 395 764 -28 34 -347 140 -482 160 -132 20 -125 5 -186 428 -72 501 -40 441 -443 829 l-349 336 -335 -24 c-184 -13 -353 -23 -375 -23 -22 0 -251 82 -510 182 -530 205 -524 204 -622 116z m362 -201 c127 -48 343 -130 480 -183 l250 -96 270 23 c459 40 385 69 736 -283 l305 -306 39 -259 c22 -142 57 -380 80 -529 59 -393 99 -752 100 -891 l0 -121 -185 -159 c-102 -87 -232 -203 -290 -257 -130 -121 -125 -129 -105 148 9 127 23 392 30 590 l14 360 -217 163 c-119 89 -351 264 -514 388 -314 238 -342 248 -375 138 -8 -27 -58 -197 -110 -379 -53 -181 -98 -333 -101 -338 -3 -4 -117 76 -254 178 l-248 185 -45 213 c-59 284 -68 311 -104 318 -19 4 -193 -167 -444 -435 l-412 -441 0 -106 c0 -164 58 -1006 72 -1042 23 -59 -15 -33 -210 143 -106 96 -237 212 -292 257 l-98 83 23 286 c13 157 56 525 95 817 l72 532 144 133 c79 72 351 317 604 544 253 226 460 412 460 412 0 1 104 -38 230 -86z m-281 -1568 l31 -154 320 -246 c316 -243 395 -288 432 -251 19 19 218 652 218 694 2 92 43 70 439 -230 l404 -305 -11 -92 c-6 -50 -16 -199 -22 -331 -6 -132 -16 -305 -23 -385 l-12 -144 -112 -52 c-661 -306 -1438 -306 -2135 0 l-122 53 -24 414 c-13 228 -28 442 -33 476 -9 57 13 87 266 358 151 163 287 313 302 334 37 53 45 39 82 -139z m-1446 -320 c-6 -52 -23 -196 -36 -320 -13 -124 -30 -225 -38 -225 -78 0 -287 313 -312 467 l-11 67 167 44 c92 25 176 48 187 52 48 17 54 5 43 -85z m4334 34 c178 -46 178 -46 125 -203 -51 -149 -118 -248 -223 -328 -87 -66 -78 -83 -107 205 -13 134 -29 276 -36 316 -13 83 -39 82 241 10z"/>
    <path d="M6630 4541 c-267 -110 -211 -721 67 -721 201 0 312 366 181 599 -57 102 -165 156 -248 122z"/>
    <path d="M5144 4471 c-142 -161 -116 -513 44 -618 273 -179 478 372 236 632 -79 84 -199 78 -280 -14z"/>
  </g>
</svg>
